<svg id="svg" xmlns="http://www.w3.org/2000/svg" xmlns:xlink="http://www.w3.org/1999/xlink" width="400" height="400" viewBox="0, 0, 400,400" version="1.1"><g id="svgg"><path id="path0" d="M198.863 20.000 C 198.969 23.110,198.883 24.001,198.474 24.000 C 198.077 24.000,197.970 24.755,198.038 27.079 C 198.098 29.130,197.973 30.209,197.664 30.312 C 197.388 30.404,197.200 31.346,197.200 32.633 C 197.200 33.825,197.020 34.800,196.800 34.800 C 196.580 34.800,196.400 35.700,196.400 36.800 C 196.400 38.014,196.223 38.800,195.950 38.800 C 195.650 38.800,195.561 39.530,195.683 41.000 C 195.821 42.657,195.734 43.200,195.333 43.200 C 194.991 43.200,194.800 43.701,194.800 44.600 C 194.800 45.370,194.620 46.000,194.400 46.000 C 194.180 46.000,194.000 46.720,194.000 47.600 C 194.000 48.480,193.820 49.200,193.600 49.200 C 193.380 49.200,193.200 49.920,193.200 50.800 C 193.200 51.680,193.020 52.400,192.800 52.400 C 192.580 52.400,192.400 52.940,192.400 53.600 C 192.400 54.260,192.220 54.800,192.000 54.800 C 191.780 54.800,191.600 55.520,191.600 56.400 C 191.600 57.280,191.420 58.000,191.200 58.000 C 190.980 58.000,190.800 58.540,190.800 59.200 C 190.800 59.860,190.620 60.400,190.400 60.400 C 190.180 60.400,190.000 60.940,190.000 61.600 C 190.000 62.260,189.820 62.800,189.600 62.800 C 189.380 62.800,189.200 63.340,189.200 64.000 C 189.200 64.660,189.020 65.200,188.800 65.200 C 188.580 65.200,188.400 65.740,188.400 66.400 C 188.400 67.060,188.196 67.600,187.948 67.600 C 187.654 67.600,187.575 68.091,187.723 69.000 C 187.894 70.056,187.808 70.400,187.375 70.400 C 187.059 70.400,186.800 70.670,186.800 71.000 C 186.800 71.330,186.596 71.600,186.348 71.600 C 186.054 71.600,185.975 72.091,186.123 73.000 C 186.294 74.056,186.208 74.400,185.775 74.400 C 185.459 74.400,185.200 74.670,185.200 75.000 C 185.200 75.330,185.000 75.600,184.755 75.600 C 184.484 75.600,184.381 76.086,184.491 76.837 C 184.609 77.640,184.484 78.146,184.136 78.280 C 183.841 78.393,183.600 78.736,183.600 79.043 C 183.600 79.349,183.420 79.600,183.200 79.600 C 182.980 79.600,182.800 79.960,182.800 80.400 C 182.800 80.840,182.620 81.200,182.400 81.200 C 182.180 81.200,182.000 81.560,182.000 82.000 C 182.000 82.440,181.800 82.800,181.555 82.800 C 181.284 82.800,181.181 83.286,181.291 84.037 C 181.409 84.840,181.284 85.346,180.936 85.480 C 180.641 85.593,180.400 85.936,180.400 86.243 C 180.400 86.549,180.220 86.800,180.000 86.800 C 179.780 86.800,179.600 87.160,179.600 87.600 C 179.600 88.040,179.400 88.400,179.157 88.400 C 178.883 88.400,178.810 88.784,178.964 89.400 C 179.155 90.160,179.059 90.400,178.565 90.400 C 178.144 90.400,177.998 90.617,178.150 91.015 C 178.287 91.371,178.126 91.730,177.770 91.867 C 177.431 91.997,177.251 92.357,177.370 92.667 C 177.489 92.977,177.320 93.333,176.993 93.458 C 176.667 93.583,176.400 94.014,176.400 94.416 C 176.400 94.817,176.040 95.260,175.600 95.400 C 175.160 95.540,174.800 96.002,174.800 96.427 C 174.800 96.852,174.620 97.200,174.400 97.200 C 174.180 97.200,174.000 97.560,174.000 98.000 C 174.000 98.440,173.799 98.800,173.553 98.800 C 173.299 98.800,173.200 99.155,173.322 99.623 C 173.479 100.224,173.276 100.565,172.569 100.887 C 172.036 101.130,171.600 101.660,171.600 102.064 C 171.600 102.469,171.420 102.800,171.200 102.800 C 170.980 102.800,170.800 103.120,170.800 103.512 C 170.800 103.903,170.440 104.483,170.000 104.800 C 169.560 105.117,169.200 105.657,169.200 106.000 C 169.200 106.343,168.840 106.883,168.400 107.200 C 167.960 107.517,167.600 108.057,167.600 108.400 C 167.600 108.743,167.240 109.283,166.800 109.600 C 166.360 109.917,166.000 110.457,166.000 110.800 C 166.000 111.143,165.640 111.683,165.200 112.000 C 164.760 112.317,164.400 112.857,164.400 113.200 C 164.400 113.543,164.040 114.083,163.600 114.400 C 163.160 114.717,162.800 115.225,162.800 115.528 C 162.800 115.831,162.260 116.583,161.600 117.200 C 160.940 117.817,160.400 118.537,160.400 118.800 C 160.400 119.063,159.860 119.783,159.200 120.400 C 158.540 121.017,158.000 121.733,158.000 121.992 C 158.000 122.251,157.291 123.144,156.423 123.978 C 155.250 125.105,154.904 125.711,155.070 126.346 C 155.227 126.947,155.109 127.200,154.673 127.200 C 153.732 127.200,149.882 131.117,150.147 131.805 C 150.278 132.147,150.026 132.572,149.539 132.832 C 148.229 133.534,132.800 149.151,132.800 149.775 C 132.800 150.084,132.229 150.462,131.532 150.615 C 130.738 150.789,129.400 151.774,127.954 153.247 C 126.684 154.541,125.441 155.600,125.194 155.600 C 124.633 155.600,123.872 156.344,123.257 157.493 C 122.967 158.035,122.556 158.281,122.182 158.138 C 121.507 157.879,120.000 159.376,120.000 160.305 C 120.000 160.712,119.724 160.818,119.079 160.656 C 118.438 160.495,117.987 160.664,117.591 161.212 C 117.279 161.646,116.780 162.000,116.483 162.000 C 115.840 162.000,115.101 162.690,114.457 163.893 C 114.167 164.435,113.756 164.681,113.382 164.538 C 113.036 164.405,112.461 164.669,112.041 165.153 C 111.637 165.619,111.052 166.000,110.741 166.000 C 110.431 166.000,109.917 166.360,109.600 166.800 C 109.283 167.240,108.732 167.600,108.376 167.600 C 108.020 167.600,107.525 168.046,107.276 168.592 C 106.977 169.250,106.614 169.504,106.200 169.345 C 105.832 169.204,105.274 169.453,104.841 169.953 C 104.437 170.419,103.812 170.800,103.453 170.800 C 103.094 170.800,102.800 170.980,102.800 171.200 C 102.800 171.420,102.440 171.600,102.000 171.600 C 101.560 171.600,101.200 171.780,101.200 172.000 C 101.200 172.220,100.869 172.400,100.464 172.400 C 100.060 172.400,99.530 172.836,99.287 173.369 C 98.965 174.076,98.624 174.279,98.023 174.122 C 97.555 174.000,97.200 174.099,97.200 174.353 C 97.200 174.599,96.840 174.800,96.400 174.800 C 95.960 174.800,95.600 174.980,95.600 175.200 C 95.600 175.420,95.240 175.600,94.800 175.600 C 94.360 175.600,94.000 175.780,94.000 176.000 C 94.000 176.220,93.640 176.400,93.200 176.400 C 92.760 176.400,92.400 176.580,92.400 176.800 C 92.400 177.020,92.040 177.200,91.600 177.200 C 91.160 177.200,90.800 177.380,90.800 177.600 C 90.800 177.820,90.440 178.000,90.000 178.000 C 89.560 178.000,89.200 178.180,89.200 178.400 C 89.200 178.620,88.880 178.800,88.488 178.800 C 88.097 178.800,87.517 179.160,87.200 179.600 C 86.861 180.070,86.165 180.400,85.512 180.400 C 84.900 180.400,84.400 180.580,84.400 180.800 C 84.400 181.020,84.040 181.200,83.600 181.200 C 83.160 181.200,82.800 181.380,82.800 181.600 C 82.800 181.820,82.440 182.000,82.000 182.000 C 81.560 182.000,81.200 182.180,81.200 182.400 C 81.200 182.620,80.949 182.800,80.643 182.800 C 80.336 182.800,79.993 183.041,79.880 183.336 C 79.746 183.684,79.240 183.809,78.437 183.691 C 77.686 183.581,77.200 183.684,77.200 183.955 C 77.200 184.200,76.840 184.400,76.400 184.400 C 75.960 184.400,75.600 184.580,75.600 184.800 C 75.600 185.020,75.060 185.200,74.400 185.200 C 73.740 185.200,73.200 185.380,73.200 185.600 C 73.200 185.820,72.840 186.000,72.400 186.000 C 71.960 186.000,71.600 186.180,71.600 186.400 C 71.600 186.620,71.060 186.800,70.400 186.800 C 69.740 186.800,69.200 186.980,69.200 187.200 C 69.200 187.420,68.949 187.600,68.643 187.600 C 68.336 187.600,67.991 187.848,67.874 188.151 C 67.740 188.500,67.287 188.629,66.632 188.504 C 65.881 188.360,65.600 188.476,65.600 188.928 C 65.600 189.415,65.297 189.500,64.200 189.323 C 63.291 189.175,62.800 189.254,62.800 189.548 C 62.800 189.796,62.260 190.000,61.600 190.000 C 60.940 190.000,60.400 190.180,60.400 190.400 C 60.400 190.620,59.950 190.800,59.400 190.800 C 58.817 190.800,58.400 191.030,58.400 191.351 C 58.400 191.767,57.960 191.852,56.600 191.699 C 55.409 191.565,54.800 191.649,54.800 191.948 C 54.800 192.197,54.260 192.400,53.600 192.400 C 52.940 192.400,52.400 192.580,52.400 192.800 C 52.400 193.020,51.789 193.200,51.043 193.200 C 50.277 193.200,49.596 193.434,49.480 193.736 C 49.344 194.089,48.837 194.208,47.993 194.084 C 47.166 193.963,46.591 194.091,46.372 194.446 C 46.166 194.779,45.532 194.942,44.762 194.862 C 44.027 194.785,43.358 194.945,43.174 195.242 C 42.967 195.577,42.150 195.718,40.828 195.648 C 39.583 195.582,38.800 195.706,38.800 195.970 C 38.800 196.229,37.844 196.400,36.400 196.400 C 35.067 196.400,34.000 196.578,34.000 196.800 C 34.000 197.020,33.010 197.200,31.800 197.200 C 30.277 197.200,29.600 197.358,29.600 197.713 C 29.600 198.097,28.894 198.186,26.800 198.068 C 24.916 197.961,24.000 198.055,24.000 198.355 C 24.000 198.651,22.711 198.800,20.153 198.800 C 16.359 198.800,16.310 198.812,16.548 199.700 C 16.681 200.195,16.792 200.753,16.795 200.940 C 16.798 201.127,18.420 201.217,20.400 201.140 C 23.241 201.029,24.000 201.115,24.000 201.545 C 24.000 201.968,24.626 202.055,26.800 201.932 C 28.894 201.814,29.600 201.903,29.600 202.287 C 29.600 202.642,30.277 202.800,31.800 202.800 C 33.010 202.800,34.000 202.980,34.000 203.200 C 34.000 203.429,35.200 203.600,36.800 203.600 C 38.400 203.600,39.600 203.771,39.600 204.000 C 39.600 204.220,40.320 204.400,41.200 204.400 C 42.080 204.400,42.800 204.580,42.800 204.800 C 42.800 205.020,43.700 205.200,44.800 205.200 C 46.020 205.200,46.800 205.376,46.800 205.652 C 46.800 205.951,47.409 206.035,48.600 205.901 C 49.960 205.748,50.400 205.833,50.400 206.249 C 50.400 206.570,50.817 206.800,51.400 206.800 C 51.950 206.800,52.400 206.994,52.400 207.231 C 52.400 207.489,53.070 207.613,54.070 207.541 C 55.126 207.464,55.800 207.600,55.903 207.910 C 55.993 208.180,56.502 208.400,57.033 208.400 C 57.565 208.400,58.000 208.580,58.000 208.800 C 58.000 209.020,58.540 209.200,59.200 209.200 C 59.860 209.200,60.400 209.380,60.400 209.600 C 60.400 209.820,60.940 210.000,61.600 210.000 C 62.260 210.000,62.800 210.180,62.800 210.400 C 62.800 210.620,63.340 210.800,64.000 210.800 C 64.660 210.800,65.200 210.980,65.200 211.200 C 65.200 211.420,65.740 211.600,66.400 211.600 C 67.060 211.600,67.600 211.780,67.600 212.000 C 67.600 212.220,67.960 212.400,68.400 212.400 C 68.840 212.400,69.200 212.580,69.200 212.800 C 69.200 213.020,69.740 213.200,70.400 213.200 C 71.060 213.200,71.600 213.380,71.600 213.600 C 71.600 213.820,72.140 214.000,72.800 214.000 C 73.460 214.000,74.000 214.180,74.000 214.400 C 74.000 214.620,74.360 214.800,74.800 214.800 C 75.240 214.800,75.600 214.980,75.600 215.200 C 75.600 215.420,76.140 215.600,76.800 215.600 C 77.460 215.600,78.000 215.800,78.000 216.043 C 78.000 216.317,78.384 216.390,79.000 216.236 C 79.738 216.051,80.000 216.144,80.000 216.592 C 80.000 216.927,80.270 217.200,80.600 217.200 C 80.930 217.200,81.200 217.380,81.200 217.600 C 81.200 217.820,81.560 218.000,82.000 218.000 C 82.440 218.000,82.800 218.180,82.800 218.400 C 82.800 218.620,83.160 218.800,83.600 218.800 C 84.040 218.800,84.400 218.980,84.400 219.200 C 84.400 219.420,85.030 219.600,85.800 219.600 C 86.570 219.600,87.200 219.780,87.200 220.000 C 87.200 220.220,87.470 220.400,87.800 220.400 C 88.130 220.400,88.400 220.580,88.400 220.800 C 88.400 221.020,88.760 221.200,89.200 221.200 C 89.640 221.200,90.000 221.380,90.000 221.600 C 90.000 221.820,90.320 222.000,90.712 222.000 C 91.103 222.000,91.683 222.360,92.000 222.800 C 92.317 223.240,92.897 223.600,93.288 223.600 C 93.680 223.600,94.000 223.780,94.000 224.000 C 94.000 224.220,94.360 224.400,94.800 224.400 C 95.240 224.400,95.600 224.580,95.600 224.800 C 95.600 225.020,95.960 225.200,96.400 225.200 C 96.840 225.200,97.200 225.400,97.200 225.643 C 97.200 225.911,97.579 225.992,98.157 225.846 C 98.940 225.650,99.161 225.789,99.365 226.603 C 99.526 227.246,99.897 227.600,100.408 227.600 C 100.843 227.600,101.200 227.780,101.200 228.000 C 101.200 228.220,101.560 228.400,102.000 228.400 C 102.440 228.400,102.800 228.580,102.800 228.800 C 102.800 229.020,103.094 229.200,103.453 229.200 C 103.812 229.200,104.432 229.575,104.830 230.034 C 105.307 230.585,105.818 230.785,106.330 230.622 C 106.928 230.433,107.166 230.609,107.361 231.388 C 107.513 231.991,107.900 232.400,108.319 232.400 C 108.707 232.400,109.283 232.760,109.600 233.200 C 109.917 233.640,110.457 234.000,110.800 234.000 C 111.143 234.000,111.683 234.360,112.000 234.800 C 112.317 235.240,112.857 235.600,113.200 235.600 C 113.543 235.600,114.083 235.960,114.400 236.400 C 114.717 236.840,115.225 237.200,115.528 237.200 C 115.831 237.200,116.583 237.740,117.200 238.400 C 117.817 239.060,118.537 239.600,118.800 239.600 C 119.063 239.600,119.801 240.159,120.440 240.843 C 121.132 241.584,121.840 241.993,122.194 241.858 C 122.554 241.720,122.973 241.976,123.257 242.507 C 123.872 243.656,124.633 244.400,125.194 244.400 C 125.441 244.400,126.684 245.459,127.954 246.753 C 129.400 248.226,130.738 249.211,131.532 249.385 C 132.229 249.538,132.800 249.916,132.800 250.225 C 132.800 250.849,148.229 266.466,149.539 267.168 C 150.016 267.423,150.277 267.855,150.151 268.183 C 149.923 268.779,152.822 271.956,154.332 272.764 C 154.828 273.029,155.078 273.452,154.945 273.799 C 154.808 274.156,155.361 275.002,156.360 275.962 C 157.262 276.828,158.000 277.744,158.000 277.997 C 158.000 278.566,158.738 279.325,159.893 279.943 C 160.435 280.233,160.681 280.644,160.538 281.018 C 160.405 281.364,160.669 281.939,161.153 282.359 C 161.619 282.763,162.000 283.322,162.000 283.600 C 162.000 284.247,163.548 285.600,164.288 285.600 C 164.677 285.600,164.772 285.857,164.593 286.423 C 164.413 286.990,164.592 287.472,165.166 287.970 C 165.625 288.368,166.000 288.948,166.000 289.259 C 166.000 289.569,166.360 290.083,166.800 290.400 C 167.240 290.717,167.600 291.268,167.600 291.624 C 167.600 291.980,168.036 292.470,168.569 292.713 C 169.234 293.016,169.476 293.388,169.342 293.901 C 169.207 294.417,169.453 294.787,170.142 295.101 C 170.873 295.434,171.080 295.772,170.922 296.377 C 170.800 296.845,170.899 297.200,171.153 297.200 C 171.399 297.200,171.600 297.560,171.600 298.000 C 171.600 298.440,171.780 298.800,172.000 298.800 C 172.220 298.800,172.400 299.157,172.400 299.592 C 172.400 300.103,172.754 300.474,173.397 300.635 C 174.211 300.839,174.350 301.060,174.154 301.843 C 174.008 302.421,174.089 302.800,174.357 302.800 C 174.600 302.800,174.800 303.160,174.800 303.600 C 174.800 304.040,174.980 304.400,175.200 304.400 C 175.420 304.400,175.600 304.760,175.600 305.200 C 175.600 305.640,175.780 306.000,176.000 306.000 C 176.220 306.000,176.400 306.320,176.400 306.712 C 176.400 307.103,176.760 307.683,177.200 308.000 C 177.640 308.317,178.000 308.897,178.000 309.288 C 178.000 309.680,178.180 310.000,178.400 310.000 C 178.620 310.000,178.800 310.360,178.800 310.800 C 178.800 311.240,178.980 311.600,179.200 311.600 C 179.420 311.600,179.600 311.851,179.600 312.157 C 179.600 312.464,179.841 312.807,180.136 312.920 C 180.484 313.054,180.609 313.560,180.491 314.363 C 180.381 315.114,180.484 315.600,180.755 315.600 C 181.000 315.600,181.200 315.960,181.200 316.400 C 181.200 316.840,181.380 317.200,181.600 317.200 C 181.820 317.200,182.000 317.560,182.000 318.000 C 182.000 318.440,182.180 318.800,182.400 318.800 C 182.620 318.800,182.800 319.070,182.800 319.400 C 182.800 319.730,182.980 320.000,183.200 320.000 C 183.420 320.000,183.600 320.630,183.600 321.400 C 183.600 322.170,183.780 322.800,184.000 322.800 C 184.220 322.800,184.400 323.160,184.400 323.600 C 184.400 324.040,184.580 324.400,184.800 324.400 C 185.020 324.400,185.200 324.940,185.200 325.600 C 185.200 326.260,185.380 326.800,185.600 326.800 C 185.820 326.800,186.000 327.160,186.000 327.600 C 186.000 328.040,186.180 328.400,186.400 328.400 C 186.620 328.400,186.800 328.940,186.800 329.600 C 186.800 330.260,186.980 330.800,187.200 330.800 C 187.420 330.800,187.600 331.160,187.600 331.600 C 187.600 332.040,187.780 332.400,188.000 332.400 C 188.220 332.400,188.400 332.940,188.400 333.600 C 188.400 334.260,188.580 334.800,188.800 334.800 C 189.020 334.800,189.200 335.340,189.200 336.000 C 189.200 336.660,189.380 337.200,189.600 337.200 C 189.820 337.200,190.000 337.740,190.000 338.400 C 190.000 339.060,190.180 339.600,190.400 339.600 C 190.620 339.600,190.800 340.320,190.800 341.200 C 190.800 342.080,190.980 342.800,191.200 342.800 C 191.420 342.800,191.600 343.250,191.600 343.800 C 191.600 344.383,191.830 344.800,192.151 344.800 C 192.567 344.800,192.652 345.240,192.499 346.600 C 192.365 347.791,192.449 348.400,192.748 348.400 C 192.997 348.400,193.200 348.850,193.200 349.400 C 193.200 349.950,193.380 350.400,193.600 350.400 C 193.820 350.400,194.000 351.390,194.000 352.600 C 194.000 353.810,194.180 354.800,194.400 354.800 C 194.620 354.800,194.800 355.520,194.800 356.400 C 194.800 357.280,194.980 358.000,195.200 358.000 C 195.420 358.000,195.600 358.810,195.600 359.800 C 195.600 361.008,195.771 361.600,196.119 361.600 C 196.508 361.600,196.596 362.251,196.472 364.200 C 196.361 365.946,196.453 366.800,196.753 366.800 C 197.028 366.800,197.200 367.647,197.200 369.000 C 197.200 370.500,197.360 371.200,197.703 371.200 C 198.077 371.200,198.169 372.022,198.060 374.414 C 197.950 376.841,198.037 377.601,198.415 377.514 C 198.796 377.427,198.894 378.467,198.827 381.900 C 198.741 386.294,198.760 386.400,199.618 386.400 C 200.444 386.400,200.486 386.258,200.323 384.000 C 200.188 382.146,200.274 381.600,200.699 381.600 C 201.130 381.600,201.231 380.847,201.166 378.120 C 201.110 375.790,201.234 374.589,201.541 374.486 C 201.823 374.392,202.000 373.342,202.000 371.767 C 202.000 370.144,202.164 369.200,202.447 369.200 C 202.747 369.200,202.839 368.346,202.728 366.600 C 202.604 364.651,202.692 364.000,203.081 364.000 C 203.443 364.000,203.600 363.336,203.600 361.800 C 203.600 360.431,203.771 359.600,204.052 359.600 C 204.351 359.600,204.435 358.991,204.301 357.800 C 204.148 356.440,204.233 356.000,204.649 356.000 C 205.012 356.000,205.200 355.522,205.200 354.600 C 205.200 353.830,205.380 353.200,205.600 353.200 C 205.820 353.200,206.000 352.480,206.000 351.600 C 206.000 350.720,206.194 350.000,206.431 350.000 C 206.689 350.000,206.813 349.330,206.741 348.330 C 206.664 347.274,206.800 346.600,207.110 346.497 C 207.380 346.407,207.600 345.898,207.600 345.367 C 207.600 344.835,207.794 344.400,208.031 344.400 C 208.287 344.400,208.414 343.742,208.344 342.777 C 208.269 341.737,208.421 341.034,208.768 340.820 C 209.122 340.601,209.218 340.126,209.047 339.443 C 208.844 338.636,208.933 338.400,209.442 338.400 C 209.960 338.400,210.049 338.144,209.860 337.200 C 209.673 336.267,209.762 336.000,210.260 336.000 C 210.758 336.000,210.847 335.733,210.660 334.800 C 210.473 333.867,210.562 333.600,211.060 333.600 C 211.558 333.600,211.647 333.333,211.460 332.400 C 211.280 331.501,211.368 331.200,211.810 331.200 C 212.135 331.200,212.400 330.930,212.400 330.600 C 212.400 330.270,212.580 330.000,212.800 330.000 C 213.020 330.000,213.200 329.460,213.200 328.800 C 213.200 328.140,213.380 327.600,213.600 327.600 C 213.820 327.600,214.000 327.240,214.000 326.800 C 214.000 326.360,214.180 326.000,214.400 326.000 C 214.620 326.000,214.800 325.460,214.800 324.800 C 214.800 324.140,214.980 323.600,215.200 323.600 C 215.420 323.600,215.600 323.240,215.600 322.800 C 215.600 322.360,215.780 322.000,216.000 322.000 C 216.220 322.000,216.400 321.640,216.400 321.200 C 216.400 320.760,216.600 320.400,216.845 320.400 C 217.116 320.400,217.219 319.914,217.109 319.163 C 216.991 318.360,217.116 317.854,217.464 317.720 C 217.759 317.607,218.000 317.264,218.000 316.957 C 218.000 316.651,218.180 316.400,218.400 316.400 C 218.620 316.400,218.800 316.040,218.800 315.600 C 218.800 315.160,218.980 314.800,219.200 314.800 C 219.420 314.800,219.600 314.440,219.600 314.000 C 219.600 313.560,219.780 313.200,220.000 313.200 C 220.220 313.200,220.400 312.840,220.400 312.400 C 220.400 311.960,220.580 311.600,220.800 311.600 C 221.020 311.600,221.200 311.240,221.200 310.800 C 221.200 310.360,221.380 310.000,221.600 310.000 C 221.820 310.000,222.000 309.640,222.000 309.200 C 222.000 308.760,222.180 308.400,222.400 308.400 C 222.620 308.400,222.800 308.040,222.800 307.600 C 222.800 307.160,222.980 306.800,223.200 306.800 C 223.420 306.800,223.600 306.440,223.600 306.000 C 223.600 305.560,223.780 305.200,224.000 305.200 C 224.220 305.200,224.400 304.840,224.400 304.400 C 224.400 303.960,224.580 303.600,224.800 303.600 C 225.020 303.600,225.200 303.280,225.200 302.888 C 225.200 302.497,225.560 301.917,226.000 301.600 C 226.440 301.283,226.800 300.703,226.800 300.312 C 226.800 299.920,226.980 299.600,227.200 299.600 C 227.420 299.600,227.600 299.240,227.600 298.800 C 227.600 298.360,227.780 298.000,228.000 298.000 C 228.220 298.000,228.400 297.706,228.400 297.347 C 228.400 296.988,228.781 296.363,229.247 295.959 C 229.747 295.526,229.996 294.968,229.855 294.600 C 229.696 294.184,229.955 293.821,230.632 293.512 C 231.407 293.159,231.596 292.839,231.428 292.167 C 231.253 291.471,231.416 291.232,232.203 291.035 C 232.751 290.897,233.200 290.494,233.200 290.139 C 233.200 289.784,233.581 289.163,234.047 288.759 C 234.547 288.326,234.796 287.768,234.655 287.400 C 234.496 286.986,234.750 286.623,235.408 286.324 C 235.954 286.075,236.400 285.613,236.400 285.296 C 236.400 284.980,236.959 284.199,237.643 283.560 C 238.384 282.868,238.793 282.160,238.658 281.806 C 238.520 281.446,238.776 281.027,239.307 280.743 C 240.637 280.031,241.200 279.343,241.200 278.429 C 241.200 277.973,241.361 277.600,241.558 277.600 C 242.462 277.600,244.350 275.296,244.132 274.460 C 243.974 273.856,244.089 273.600,244.521 273.600 C 245.459 273.600,248.518 270.486,248.255 269.799 C 248.122 269.453,248.369 269.030,248.857 268.769 C 249.921 268.200,256.400 261.731,256.400 261.238 C 256.400 259.939,259.919 256.400,261.211 256.400 C 261.726 256.400,268.184 249.952,268.775 248.847 C 269.021 248.386,269.711 247.887,270.308 247.737 C 270.904 247.587,272.055 246.775,272.865 245.932 C 273.675 245.090,274.546 244.400,274.800 244.400 C 275.054 244.400,275.954 243.680,276.800 242.800 C 277.646 241.920,278.549 241.200,278.808 241.200 C 279.067 241.200,279.783 240.660,280.400 240.000 C 281.017 239.340,281.805 238.800,282.153 238.800 C 282.500 238.800,282.901 238.335,283.044 237.767 C 283.243 236.974,283.492 236.783,284.112 236.945 C 284.666 237.090,285.265 236.787,286.020 235.978 C 286.626 235.330,287.369 234.800,287.672 234.800 C 287.975 234.800,288.483 234.440,288.800 234.000 C 289.117 233.560,289.697 233.200,290.088 233.200 C 290.480 233.200,290.800 233.020,290.800 232.800 C 290.800 232.580,291.120 232.400,291.512 232.400 C 291.903 232.400,292.483 232.040,292.800 231.600 C 293.117 231.160,293.657 230.800,294.000 230.800 C 294.343 230.800,294.883 230.440,295.200 230.000 C 295.517 229.560,296.097 229.200,296.488 229.200 C 296.880 229.200,297.200 229.020,297.200 228.800 C 297.200 228.580,297.531 228.400,297.936 228.400 C 298.340 228.400,298.870 227.964,299.113 227.431 C 299.435 226.724,299.776 226.521,300.377 226.678 C 300.845 226.800,301.200 226.701,301.200 226.447 C 301.200 226.201,301.560 226.000,302.000 226.000 C 302.440 226.000,302.800 225.820,302.800 225.600 C 302.800 225.380,303.120 225.200,303.512 225.200 C 303.903 225.200,304.483 224.840,304.800 224.400 C 305.117 223.960,305.607 223.600,305.888 223.600 C 306.170 223.600,306.400 223.420,306.400 223.200 C 306.400 222.980,306.741 222.800,307.157 222.800 C 307.574 222.800,308.017 222.533,308.142 222.207 C 308.267 221.880,308.623 221.711,308.933 221.830 C 309.243 221.949,309.603 221.769,309.733 221.430 C 309.870 221.074,310.229 220.913,310.585 221.050 C 310.987 221.204,311.200 221.054,311.200 220.616 C 311.200 220.128,311.417 220.015,312.000 220.200 C 312.571 220.381,312.800 220.272,312.800 219.819 C 312.800 219.342,313.048 219.247,313.800 219.436 C 314.416 219.590,314.800 219.517,314.800 219.243 C 314.800 219.000,315.340 218.800,316.000 218.800 C 316.660 218.800,317.200 218.620,317.200 218.400 C 317.200 218.180,317.560 218.000,318.000 218.000 C 318.440 218.000,318.800 217.820,318.800 217.600 C 318.800 217.380,319.160 217.200,319.600 217.200 C 320.040 217.200,320.400 217.020,320.400 216.800 C 320.400 216.580,320.651 216.400,320.957 216.400 C 321.264 216.400,321.607 216.159,321.720 215.864 C 321.854 215.516,322.360 215.391,323.163 215.509 C 323.914 215.619,324.400 215.516,324.400 215.245 C 324.400 215.000,324.651 214.800,324.957 214.800 C 325.264 214.800,325.607 214.559,325.720 214.264 C 325.854 213.916,326.360 213.791,327.163 213.909 C 327.914 214.019,328.400 213.916,328.400 213.645 C 328.400 213.400,328.670 213.200,329.000 213.200 C 329.330 213.200,329.600 213.020,329.600 212.800 C 329.600 212.580,330.230 212.400,331.000 212.400 C 331.770 212.400,332.400 212.220,332.400 212.000 C 332.400 211.780,332.940 211.600,333.600 211.600 C 334.260 211.600,334.800 211.420,334.800 211.200 C 334.800 210.980,335.340 210.800,336.000 210.800 C 336.660 210.800,337.200 210.620,337.200 210.400 C 337.200 210.180,337.740 210.000,338.400 210.000 C 339.060 210.000,339.600 209.820,339.600 209.600 C 339.600 209.380,340.140 209.200,340.800 209.200 C 341.460 209.200,342.000 209.020,342.000 208.800 C 342.000 208.580,342.435 208.400,342.967 208.400 C 343.498 208.400,344.007 208.180,344.097 207.910 C 344.200 207.600,344.874 207.464,345.930 207.541 C 346.930 207.613,347.600 207.489,347.600 207.231 C 347.600 206.994,348.140 206.800,348.800 206.800 C 349.460 206.800,350.000 206.620,350.000 206.400 C 350.000 206.180,350.630 206.000,351.400 206.000 C 352.170 206.000,352.800 205.820,352.800 205.600 C 352.800 205.380,353.790 205.200,355.000 205.200 C 356.210 205.200,357.200 205.020,357.200 204.800 C 357.200 204.580,357.920 204.400,358.800 204.400 C 359.680 204.400,360.400 204.220,360.400 204.000 C 360.400 203.778,361.467 203.600,362.800 203.600 C 364.133 203.600,365.200 203.422,365.200 203.200 C 365.200 202.978,366.256 202.800,367.567 202.800 C 369.096 202.800,369.992 202.624,370.099 202.303 C 370.216 201.952,371.105 201.846,373.132 201.939 C 375.328 202.041,376.000 201.946,376.000 201.536 C 376.000 201.117,376.788 201.031,379.600 201.140 L 383.200 201.280 383.200 200.040 L 383.200 198.800 379.800 198.800 C 377.800 198.800,376.400 198.635,376.400 198.400 C 376.400 198.167,375.067 198.000,373.200 198.000 C 371.333 198.000,370.000 197.833,370.000 197.600 C 370.000 197.374,368.867 197.200,367.400 197.200 C 365.816 197.200,364.800 197.032,364.800 196.771 C 364.800 196.504,363.943 196.382,362.525 196.447 C 361.039 196.516,360.196 196.388,360.092 196.076 C 360.005 195.814,359.318 195.600,358.567 195.600 C 357.815 195.600,357.200 195.420,357.200 195.200 C 357.200 194.980,356.480 194.800,355.600 194.800 C 354.720 194.800,354.000 194.620,354.000 194.400 C 354.000 194.180,353.280 194.000,352.400 194.000 C 351.520 194.000,350.800 193.820,350.800 193.600 C 350.800 193.380,350.080 193.200,349.200 193.200 C 348.320 193.200,347.600 193.020,347.600 192.800 C 347.600 192.580,346.880 192.400,346.000 192.400 C 345.120 192.400,344.400 192.220,344.400 192.000 C 344.400 191.780,343.860 191.600,343.200 191.600 C 342.540 191.600,342.000 191.420,342.000 191.200 C 342.000 190.980,341.460 190.800,340.800 190.800 C 340.140 190.800,339.600 190.620,339.600 190.400 C 339.600 190.180,339.060 190.000,338.400 190.000 C 337.740 190.000,337.200 189.820,337.200 189.600 C 337.200 189.380,336.660 189.200,336.000 189.200 C 335.340 189.200,334.800 189.020,334.800 188.800 C 334.800 188.580,334.260 188.400,333.600 188.400 C 332.940 188.400,332.400 188.196,332.400 187.948 C 332.400 187.654,331.909 187.575,331.000 187.723 C 329.944 187.894,329.600 187.808,329.600 187.375 C 329.600 187.059,329.330 186.800,329.000 186.800 C 328.670 186.800,328.400 186.620,328.400 186.400 C 328.400 186.180,327.860 186.000,327.200 186.000 C 326.540 186.000,326.000 185.820,326.000 185.600 C 326.000 185.380,325.640 185.200,325.200 185.200 C 324.760 185.200,324.400 185.020,324.400 184.800 C 324.400 184.580,323.860 184.400,323.200 184.400 C 322.540 184.400,322.000 184.220,322.000 184.000 C 322.000 183.780,321.640 183.600,321.200 183.600 C 320.760 183.600,320.400 183.420,320.400 183.200 C 320.400 182.980,320.040 182.800,319.600 182.800 C 319.160 182.800,318.800 182.620,318.800 182.400 C 318.800 182.180,318.260 182.000,317.600 182.000 C 316.940 182.000,316.400 181.799,316.400 181.553 C 316.400 181.299,316.045 181.200,315.576 181.322 C 315.071 181.454,314.666 181.317,314.533 180.969 C 314.413 180.656,314.064 180.400,313.757 180.400 C 313.451 180.400,313.200 180.220,313.200 180.000 C 313.200 179.780,312.840 179.600,312.400 179.600 C 311.960 179.600,311.600 179.420,311.600 179.200 C 311.600 178.980,311.240 178.800,310.800 178.800 C 310.360 178.800,310.000 178.600,310.000 178.357 C 310.000 178.083,309.616 178.010,309.000 178.164 C 308.248 178.353,308.000 178.258,308.000 177.781 C 308.000 177.328,307.771 177.219,307.200 177.400 C 306.617 177.585,306.400 177.472,306.400 176.984 C 306.400 176.546,306.187 176.396,305.785 176.550 C 305.435 176.685,305.072 176.531,304.942 176.193 C 304.817 175.867,304.503 175.600,304.246 175.600 C 303.988 175.600,303.517 175.240,303.200 174.800 C 302.883 174.360,302.303 174.000,301.912 174.000 C 301.520 174.000,301.200 173.800,301.200 173.557 C 301.200 173.283,300.816 173.210,300.200 173.364 C 299.462 173.549,299.200 173.456,299.200 173.008 C 299.200 172.673,298.970 172.400,298.688 172.400 C 298.407 172.400,297.917 172.040,297.600 171.600 C 297.283 171.160,296.743 170.800,296.400 170.800 C 296.057 170.800,295.517 170.440,295.200 170.000 C 294.883 169.560,294.303 169.200,293.912 169.200 C 293.520 169.200,293.200 169.020,293.200 168.800 C 293.200 168.580,292.906 168.400,292.547 168.400 C 292.188 168.400,291.563 168.019,291.159 167.553 C 290.726 167.053,290.168 166.804,289.800 166.945 C 289.384 167.104,289.021 166.845,288.711 166.165 C 288.394 165.468,288.017 165.207,287.518 165.337 C 287.053 165.459,286.624 165.219,286.332 164.672 C 285.717 163.523,284.961 162.800,284.375 162.800 C 284.111 162.800,283.563 162.419,283.159 161.953 C 282.739 161.469,282.164 161.205,281.818 161.338 C 281.444 161.481,281.033 161.235,280.743 160.693 C 280.017 159.336,279.236 158.701,278.596 158.946 C 278.248 159.080,277.823 158.816,277.543 158.293 C 276.927 157.142,276.166 156.400,275.603 156.400 C 275.353 156.400,274.292 155.521,273.246 154.448 C 272.115 153.286,270.830 152.382,270.072 152.216 C 269.373 152.062,268.800 151.689,268.800 151.386 C 268.800 150.624,262.578 144.400,261.817 144.400 C 261.478 144.400,261.200 144.232,261.200 144.027 C 261.200 143.822,260.849 143.542,260.419 143.406 C 259.260 143.038,256.831 140.464,256.537 139.291 C 256.275 138.246,250.353 132.031,248.857 131.231 C 248.369 130.970,248.122 130.547,248.255 130.201 C 248.518 129.514,245.459 126.400,244.521 126.400 C 244.091 126.400,243.974 126.144,244.130 125.546 C 244.296 124.911,243.950 124.305,242.777 123.178 C 241.909 122.344,241.200 121.456,241.200 121.203 C 241.200 120.634,240.462 119.875,239.307 119.257 C 238.765 118.967,238.519 118.556,238.662 118.182 C 238.795 117.836,238.531 117.261,238.047 116.841 C 237.581 116.437,237.200 115.889,237.200 115.625 C 237.200 115.039,236.477 114.283,235.328 113.668 C 234.750 113.359,234.539 112.955,234.678 112.423 C 234.834 111.827,234.632 111.573,233.845 111.376 C 233.017 111.168,232.851 110.935,233.028 110.233 C 233.196 109.561,233.007 109.241,232.232 108.888 C 231.555 108.579,231.296 108.216,231.455 107.800 C 231.596 107.432,231.347 106.874,230.847 106.441 C 230.381 106.037,230.000 105.412,230.000 105.053 C 230.000 104.694,229.820 104.400,229.600 104.400 C 229.380 104.400,229.200 104.069,229.200 103.664 C 229.200 103.260,228.764 102.730,228.231 102.487 C 227.524 102.165,227.321 101.824,227.478 101.223 C 227.600 100.755,227.501 100.400,227.247 100.400 C 227.001 100.400,226.800 100.040,226.800 99.600 C 226.800 99.160,226.620 98.800,226.400 98.800 C 226.180 98.800,226.000 98.469,226.000 98.064 C 226.000 97.660,225.564 97.130,225.031 96.887 C 224.324 96.565,224.121 96.224,224.278 95.623 C 224.400 95.155,224.301 94.800,224.047 94.800 C 223.801 94.800,223.600 94.440,223.600 94.000 C 223.600 93.560,223.420 93.200,223.200 93.200 C 222.980 93.200,222.800 92.840,222.800 92.400 C 222.800 91.960,222.620 91.600,222.400 91.600 C 222.180 91.600,222.000 91.240,222.000 90.800 C 222.000 90.360,221.820 90.000,221.600 90.000 C 221.380 90.000,221.200 89.640,221.200 89.200 C 221.200 88.760,221.020 88.400,220.800 88.400 C 220.580 88.400,220.400 88.040,220.400 87.600 C 220.400 87.160,220.220 86.800,220.000 86.800 C 219.780 86.800,219.600 86.440,219.600 86.000 C 219.600 85.560,219.420 85.200,219.200 85.200 C 218.980 85.200,218.800 84.930,218.800 84.600 C 218.800 84.270,218.541 84.000,218.225 84.000 C 217.792 84.000,217.706 83.656,217.877 82.600 C 218.025 81.691,217.946 81.200,217.652 81.200 C 217.404 81.200,217.200 80.840,217.200 80.400 C 217.200 79.960,217.020 79.600,216.800 79.600 C 216.580 79.600,216.400 79.240,216.400 78.800 C 216.400 78.360,216.220 78.000,216.000 78.000 C 215.780 78.000,215.600 77.640,215.600 77.200 C 215.600 76.760,215.420 76.400,215.200 76.400 C 214.980 76.400,214.800 75.860,214.800 75.200 C 214.800 74.540,214.620 74.000,214.400 74.000 C 214.180 74.000,214.000 73.640,214.000 73.200 C 214.000 72.760,213.820 72.400,213.600 72.400 C 213.380 72.400,213.200 71.860,213.200 71.200 C 213.200 70.540,213.020 70.000,212.800 70.000 C 212.580 70.000,212.400 69.460,212.400 68.800 C 212.400 68.140,212.220 67.600,212.000 67.600 C 211.780 67.600,211.600 67.060,211.600 66.400 C 211.600 65.740,211.420 65.200,211.200 65.200 C 210.980 65.200,210.800 64.660,210.800 64.000 C 210.800 63.340,210.620 62.800,210.400 62.800 C 210.180 62.800,210.000 62.260,210.000 61.600 C 210.000 60.940,209.820 60.400,209.600 60.400 C 209.380 60.400,209.200 59.860,209.200 59.200 C 209.200 58.540,209.020 58.000,208.800 58.000 C 208.580 58.000,208.400 57.565,208.400 57.033 C 208.400 56.502,208.180 55.993,207.910 55.903 C 207.600 55.800,207.464 55.126,207.541 54.070 C 207.613 53.070,207.489 52.400,207.231 52.400 C 206.994 52.400,206.800 51.965,206.800 51.433 C 206.800 50.902,206.584 50.395,206.320 50.307 C 206.008 50.203,205.878 49.417,205.949 48.073 C 206.017 46.794,205.895 46.000,205.630 46.000 C 205.393 46.000,205.200 45.280,205.200 44.400 C 205.200 43.520,205.020 42.800,204.800 42.800 C 204.580 42.800,204.400 42.080,204.400 41.200 C 204.400 40.320,204.220 39.600,204.000 39.600 C 203.780 39.600,203.600 38.610,203.600 37.400 C 203.600 35.850,203.445 35.200,203.074 35.200 C 202.680 35.200,202.592 34.604,202.723 32.800 C 202.858 30.925,202.773 30.400,202.335 30.400 C 201.891 30.400,201.807 29.806,201.935 27.553 C 202.051 25.488,201.951 24.617,201.569 24.381 C 201.180 24.141,201.071 23.067,201.152 20.282 C 201.267 16.329,201.125 16.039,199.063 16.005 C 198.877 16.002,198.787 17.800,198.863 20.000 " stroke="none" fill="#f4cc64" fill-rule="evenodd"></path><path id="path1" d="M198.800 15.353 C 198.800 15.658,199.205 16.015,199.700 16.148 C 201.066 16.514,201.200 16.465,201.200 15.600 C 201.200 14.978,200.933 14.800,200.000 14.800 C 199.245 14.800,198.800 15.005,198.800 15.353 M198.000 23.367 C 198.000 23.715,198.285 24.000,198.633 24.000 C 199.340 24.000,199.217 23.139,198.475 22.892 C 198.214 22.805,198.000 23.018,198.000 23.367 M201.000 23.200 C 200.708 23.672,201.087 24.400,201.624 24.400 C 201.831 24.400,202.000 24.040,202.000 23.600 C 202.000 22.756,201.418 22.524,201.000 23.200 M197.200 29.800 C 197.200 30.167,197.394 30.402,197.630 30.323 C 197.867 30.245,198.060 30.009,198.060 29.800 C 198.060 29.591,197.867 29.356,197.630 29.277 C 197.394 29.198,197.200 29.433,197.200 29.800 M201.867 29.467 C 201.406 29.927,201.575 30.400,202.200 30.400 C 202.530 30.400,202.800 30.130,202.800 29.800 C 202.800 29.175,202.327 29.006,201.867 29.467 M202.667 34.267 C 202.206 34.727,202.375 35.200,203.000 35.200 C 203.330 35.200,203.600 34.930,203.600 34.600 C 203.600 33.975,203.127 33.806,202.667 34.267 M194.800 42.567 C 194.800 42.915,195.085 43.200,195.433 43.200 C 196.140 43.200,196.017 42.339,195.275 42.092 C 195.014 42.005,194.800 42.218,194.800 42.567 M205.878 49.456 C 205.558 49.775,205.919 50.400,206.424 50.400 C 206.631 50.400,206.800 50.130,206.800 49.800 C 206.800 49.181,206.328 49.005,205.878 49.456 M207.478 55.056 C 207.158 55.375,207.519 56.000,208.024 56.000 C 208.231 56.000,208.400 55.730,208.400 55.400 C 208.400 54.781,207.928 54.605,207.478 55.056 M186.800 69.767 C 186.800 70.115,187.085 70.400,187.433 70.400 C 188.140 70.400,188.017 69.539,187.275 69.292 C 187.014 69.205,186.800 69.418,186.800 69.767 M185.200 73.767 C 185.200 74.115,185.485 74.400,185.833 74.400 C 186.540 74.400,186.417 73.539,185.675 73.292 C 185.414 73.205,185.200 73.418,185.200 73.767 M183.600 77.800 C 183.600 78.167,183.793 78.402,184.030 78.323 C 184.267 78.245,184.460 78.009,184.460 77.800 C 184.460 77.591,184.267 77.356,184.030 77.277 C 183.793 77.198,183.600 77.433,183.600 77.800 M217.867 83.067 C 217.406 83.527,217.575 84.000,218.200 84.000 C 218.530 84.000,218.800 83.730,218.800 83.400 C 218.800 82.775,218.327 82.606,217.867 83.067 M180.400 85.000 C 180.400 85.367,180.594 85.602,180.830 85.523 C 181.067 85.445,181.260 85.209,181.260 85.000 C 181.260 84.791,181.067 84.556,180.830 84.477 C 180.594 84.398,180.400 84.633,180.400 85.000 M178.000 89.767 C 178.000 90.115,178.285 90.400,178.633 90.400 C 179.340 90.400,179.217 89.539,178.475 89.292 C 178.214 89.205,178.000 89.418,178.000 89.767 M177.200 91.400 C 177.200 91.767,177.394 92.002,177.630 91.923 C 177.867 91.844,178.060 91.609,178.060 91.400 C 178.060 91.191,177.867 90.956,177.630 90.877 C 177.394 90.798,177.200 91.033,177.200 91.400 M176.400 93.000 C 176.400 93.367,176.594 93.602,176.830 93.523 C 177.067 93.445,177.260 93.209,177.260 93.000 C 177.260 92.791,177.067 92.556,176.830 92.477 C 176.594 92.398,176.400 92.633,176.400 93.000 M175.600 94.600 C 175.600 94.930,175.780 95.200,176.000 95.200 C 176.220 95.200,176.400 94.930,176.400 94.600 C 176.400 94.270,176.220 94.000,176.000 94.000 C 175.780 94.000,175.600 94.270,175.600 94.600 M224.278 95.856 C 223.958 96.175,224.319 96.800,224.824 96.800 C 225.031 96.800,225.200 96.530,225.200 96.200 C 225.200 95.581,224.728 95.405,224.278 95.856 M172.400 100.200 C 172.400 100.567,172.594 100.802,172.830 100.723 C 173.067 100.644,173.260 100.409,173.260 100.200 C 173.260 99.991,173.067 99.756,172.830 99.677 C 172.594 99.598,172.400 99.833,172.400 100.200 M227.478 101.456 C 227.158 101.775,227.519 102.400,228.024 102.400 C 228.231 102.400,228.400 102.130,228.400 101.800 C 228.400 101.181,227.928 101.005,227.478 101.456 M231.478 107.856 C 231.158 108.175,231.519 108.800,232.024 108.800 C 232.231 108.800,232.400 108.530,232.400 108.200 C 232.400 107.581,231.928 107.405,231.478 107.856 M233.067 110.267 C 232.606 110.727,232.775 111.200,233.400 111.200 C 233.730 111.200,234.000 110.930,234.000 110.600 C 234.000 109.975,233.527 109.806,233.067 110.267 M234.678 112.656 C 234.358 112.975,234.719 113.600,235.224 113.600 C 235.431 113.600,235.600 113.330,235.600 113.000 C 235.600 112.381,235.128 112.205,234.678 112.656 M238.678 118.256 C 238.358 118.575,238.719 119.200,239.224 119.200 C 239.431 119.200,239.600 118.930,239.600 118.600 C 239.600 117.981,239.128 117.805,238.678 118.256 M244.000 125.800 C 244.000 126.130,244.270 126.400,244.600 126.400 C 244.930 126.400,245.200 126.130,245.200 125.800 C 245.200 125.470,244.930 125.200,244.600 125.200 C 244.270 125.200,244.000 125.470,244.000 125.800 M154.000 126.600 C 154.000 126.930,154.270 127.200,154.600 127.200 C 154.930 127.200,155.200 126.930,155.200 126.600 C 155.200 126.270,154.930 126.000,154.600 126.000 C 154.270 126.000,154.000 126.270,154.000 126.600 M248.278 130.256 C 247.958 130.575,248.319 131.200,248.824 131.200 C 249.031 131.200,249.200 130.930,249.200 130.600 C 249.200 129.981,248.728 129.805,248.278 130.256 M149.200 132.200 C 149.200 132.567,149.393 132.802,149.630 132.723 C 149.867 132.644,150.060 132.409,150.060 132.200 C 150.060 131.991,149.867 131.756,149.630 131.677 C 149.393 131.598,149.200 131.833,149.200 132.200 M256.400 139.111 C 256.400 139.924,259.341 143.198,260.071 143.200 C 260.221 143.200,260.634 143.491,260.990 143.848 C 261.347 144.204,261.736 144.397,261.856 144.277 C 262.068 144.065,257.022 138.800,256.607 138.800 C 256.493 138.800,256.400 138.940,256.400 139.111 M131.260 149.842 C 130.579 150.611,130.789 150.833,131.917 150.537 C 132.403 150.411,132.800 150.058,132.800 149.753 C 132.800 149.024,131.939 149.073,131.260 149.842 M268.800 151.353 C 268.800 151.872,270.370 152.564,270.730 152.203 C 270.972 151.961,269.730 150.800,269.229 150.800 C 268.993 150.800,268.800 151.049,268.800 151.353 M122.077 157.630 C 122.156 157.867,122.391 158.060,122.600 158.060 C 122.809 158.060,123.044 157.867,123.123 157.630 C 123.202 157.394,122.967 157.200,122.600 157.200 C 122.233 157.200,121.998 157.394,122.077 157.630 M277.677 158.430 C 277.755 158.667,277.991 158.860,278.200 158.860 C 278.409 158.860,278.645 158.667,278.723 158.430 C 278.802 158.194,278.567 158.000,278.200 158.000 C 277.833 158.000,277.598 158.194,277.677 158.430 M118.800 160.200 C 118.800 160.530,119.070 160.800,119.400 160.800 C 119.730 160.800,120.000 160.530,120.000 160.200 C 120.000 159.870,119.730 159.600,119.400 159.600 C 119.070 159.600,118.800 159.870,118.800 160.200 M280.877 160.830 C 280.955 161.067,281.191 161.260,281.400 161.260 C 281.609 161.260,281.845 161.067,281.923 160.830 C 282.002 160.594,281.767 160.400,281.400 160.400 C 281.033 160.400,280.798 160.594,280.877 160.830 M113.277 164.030 C 113.356 164.267,113.591 164.460,113.800 164.460 C 114.009 164.460,114.245 164.267,114.323 164.030 C 114.402 163.793,114.167 163.600,113.800 163.600 C 113.433 163.600,113.198 163.793,113.277 164.030 M286.477 164.830 C 286.555 165.067,286.791 165.260,287.000 165.260 C 287.209 165.260,287.445 165.067,287.523 164.830 C 287.602 164.594,287.367 164.400,287.000 164.400 C 286.633 164.400,286.398 164.594,286.477 164.830 M288.877 166.430 C 288.955 166.667,289.191 166.860,289.400 166.860 C 289.609 166.860,289.845 166.667,289.923 166.430 C 290.002 166.194,289.767 166.000,289.400 166.000 C 289.033 166.000,288.798 166.194,288.877 166.430 M106.077 168.830 C 106.156 169.067,106.391 169.260,106.600 169.260 C 106.809 169.260,107.044 169.067,107.123 168.830 C 107.202 168.594,106.967 168.400,106.600 168.400 C 106.233 168.400,105.998 168.594,106.077 168.830 M299.200 173.033 C 299.200 173.740,300.061 173.617,300.308 172.875 C 300.395 172.614,300.182 172.400,299.833 172.400 C 299.485 172.400,299.200 172.685,299.200 173.033 M98.077 173.630 C 98.156 173.867,98.391 174.060,98.600 174.060 C 98.809 174.060,99.044 173.867,99.123 173.630 C 99.202 173.394,98.967 173.200,98.600 173.200 C 98.233 173.200,97.998 173.394,98.077 173.630 M304.877 176.030 C 304.955 176.267,305.191 176.460,305.400 176.460 C 305.609 176.460,305.845 176.267,305.923 176.030 C 306.002 175.793,305.767 175.600,305.400 175.600 C 305.033 175.600,304.798 175.793,304.877 176.030 M306.400 177.033 C 306.400 177.382,306.614 177.595,306.875 177.508 C 307.617 177.261,307.740 176.400,307.033 176.400 C 306.685 176.400,306.400 176.685,306.400 177.033 M308.000 177.833 C 308.000 178.540,308.861 178.417,309.108 177.675 C 309.195 177.414,308.982 177.200,308.633 177.200 C 308.285 177.200,308.000 177.485,308.000 177.833 M314.477 180.830 C 314.555 181.067,314.791 181.260,315.000 181.260 C 315.209 181.260,315.445 181.067,315.523 180.830 C 315.602 180.594,315.367 180.400,315.000 180.400 C 314.633 180.400,314.398 180.594,314.477 180.830 M78.877 183.230 C 78.956 183.466,79.191 183.660,79.400 183.660 C 79.609 183.660,79.844 183.466,79.923 183.230 C 80.002 182.994,79.767 182.800,79.400 182.800 C 79.033 182.800,78.798 182.994,78.877 183.230 M329.600 187.433 C 329.600 188.140,330.461 188.017,330.708 187.275 C 330.795 187.014,330.582 186.800,330.233 186.800 C 329.885 186.800,329.600 187.085,329.600 187.433 M66.877 188.030 C 66.956 188.267,67.191 188.460,67.400 188.460 C 67.609 188.460,67.844 188.267,67.923 188.030 C 68.002 187.793,67.767 187.600,67.400 187.600 C 67.033 187.600,66.798 187.793,66.877 188.030 M64.492 188.875 C 64.739 189.617,65.600 189.740,65.600 189.033 C 65.600 188.685,65.315 188.400,64.967 188.400 C 64.618 188.400,64.405 188.614,64.492 188.875 M57.292 191.275 C 57.539 192.017,58.400 192.140,58.400 191.433 C 58.400 191.085,58.115 190.800,57.767 190.800 C 57.418 190.800,57.205 191.014,57.292 191.275 M48.477 193.630 C 48.556 193.867,48.791 194.060,49.000 194.060 C 49.209 194.060,49.445 193.867,49.523 193.630 C 49.602 193.394,49.367 193.200,49.000 193.200 C 48.633 193.200,48.398 193.394,48.477 193.630 M45.277 194.430 C 45.356 194.667,45.591 194.860,45.800 194.860 C 46.009 194.860,46.245 194.667,46.323 194.430 C 46.402 194.194,46.167 194.000,45.800 194.000 C 45.433 194.000,45.198 194.194,45.277 194.430 M42.077 195.230 C 42.156 195.466,42.391 195.660,42.600 195.660 C 42.809 195.660,43.044 195.466,43.123 195.230 C 43.202 194.994,42.967 194.800,42.600 194.800 C 42.233 194.800,41.998 194.994,42.077 195.230 M360.077 196.030 C 360.156 196.267,360.391 196.460,360.600 196.460 C 360.809 196.460,361.045 196.267,361.123 196.030 C 361.202 195.793,360.967 195.600,360.600 195.600 C 360.233 195.600,359.998 195.793,360.077 196.030 M364.800 196.800 C 364.800 197.020,365.070 197.200,365.400 197.200 C 365.730 197.200,366.000 197.020,366.000 196.800 C 366.000 196.580,365.730 196.400,365.400 196.400 C 365.070 196.400,364.800 196.580,364.800 196.800 M28.492 197.675 C 28.739 198.417,29.600 198.540,29.600 197.833 C 29.600 197.485,29.315 197.200,28.967 197.200 C 28.618 197.200,28.405 197.414,28.492 197.675 M22.800 198.400 C 22.800 198.620,23.070 198.800,23.400 198.800 C 23.730 198.800,24.000 198.620,24.000 198.400 C 24.000 198.180,23.730 198.000,23.400 198.000 C 23.070 198.000,22.800 198.180,22.800 198.400 M14.800 200.000 C 14.800 201.028,14.950 201.200,15.847 201.200 C 16.737 201.200,16.857 201.065,16.652 200.300 C 16.519 199.805,16.408 199.265,16.405 199.100 C 16.386 198.036,14.800 198.925,14.800 200.000 M383.200 200.000 C 383.200 201.013,383.356 201.200,384.200 201.200 C 385.331 201.200,385.545 200.287,384.629 199.371 C 383.725 198.468,383.200 198.700,383.200 200.000 M23.067 201.067 C 22.606 201.527,22.775 202.000,23.400 202.000 C 23.730 202.000,24.000 201.730,24.000 201.400 C 24.000 200.775,23.527 200.606,23.067 201.067 M376.000 201.367 C 376.000 201.715,376.285 202.000,376.633 202.000 C 376.982 202.000,377.195 201.786,377.108 201.525 C 376.861 200.783,376.000 200.660,376.000 201.367 M28.667 201.867 C 28.206 202.327,28.375 202.800,29.000 202.800 C 29.330 202.800,29.600 202.530,29.600 202.200 C 29.600 201.575,29.127 201.406,28.667 201.867 M370.275 201.858 C 369.753 202.380,370.002 202.800,370.833 202.800 C 371.299 202.800,371.597 202.590,371.508 202.325 C 371.313 201.740,370.646 201.488,370.275 201.858 M352.800 205.600 C 352.800 205.820,353.070 206.000,353.400 206.000 C 353.730 206.000,354.000 205.820,354.000 205.600 C 354.000 205.380,353.730 205.200,353.400 205.200 C 353.070 205.200,352.800 205.380,352.800 205.600 M49.467 205.867 C 49.006 206.327,49.175 206.800,49.800 206.800 C 50.130 206.800,50.400 206.530,50.400 206.200 C 50.400 205.575,49.927 205.406,49.467 205.867 M55.056 207.478 C 54.605 207.928,54.781 208.400,55.400 208.400 C 55.730 208.400,56.000 208.231,56.000 208.024 C 56.000 207.519,55.375 207.158,55.056 207.478 M344.256 207.478 C 343.805 207.928,343.981 208.400,344.600 208.400 C 344.930 208.400,345.200 208.231,345.200 208.024 C 345.200 207.519,344.575 207.158,344.256 207.478 M329.600 212.800 C 329.600 213.020,329.870 213.200,330.200 213.200 C 330.530 213.200,330.800 213.020,330.800 212.800 C 330.800 212.580,330.530 212.400,330.200 212.400 C 329.870 212.400,329.600 212.580,329.600 212.800 M325.856 213.878 C 325.405 214.328,325.581 214.800,326.200 214.800 C 326.530 214.800,326.800 214.631,326.800 214.424 C 326.800 213.919,326.175 213.558,325.856 213.878 M321.856 215.478 C 321.405 215.928,321.581 216.400,322.200 216.400 C 322.530 216.400,322.800 216.231,322.800 216.024 C 322.800 215.519,322.175 215.158,321.856 215.478 M79.067 216.267 C 78.606 216.727,78.775 217.200,79.400 217.200 C 79.730 217.200,80.000 216.930,80.000 216.600 C 80.000 215.975,79.527 215.806,79.067 216.267 M312.800 219.767 C 312.800 220.115,313.085 220.400,313.433 220.400 C 314.140 220.400,314.017 219.539,313.275 219.292 C 313.014 219.205,312.800 219.418,312.800 219.767 M86.000 220.000 C 86.000 220.220,86.270 220.400,86.600 220.400 C 86.930 220.400,87.200 220.220,87.200 220.000 C 87.200 219.780,86.930 219.600,86.600 219.600 C 86.270 219.600,86.000 219.780,86.000 220.000 M311.200 220.567 C 311.200 220.915,311.485 221.200,311.833 221.200 C 312.540 221.200,312.417 220.339,311.675 220.092 C 311.414 220.005,311.200 220.218,311.200 220.567 M309.856 221.078 C 309.405 221.528,309.581 222.000,310.200 222.000 C 310.530 222.000,310.800 221.831,310.800 221.624 C 310.800 221.119,310.175 220.758,309.856 221.078 M308.256 221.878 C 307.805 222.328,307.981 222.800,308.600 222.800 C 308.930 222.800,309.200 222.631,309.200 222.424 C 309.200 221.919,308.575 221.558,308.256 221.878 M306.400 223.200 C 306.400 223.420,306.670 223.600,307.000 223.600 C 307.330 223.600,307.600 223.420,307.600 223.200 C 307.600 222.980,307.330 222.800,307.000 222.800 C 306.670 222.800,306.400 222.980,306.400 223.200 M98.267 225.867 C 97.806 226.327,97.975 226.800,98.600 226.800 C 98.930 226.800,99.200 226.530,99.200 226.200 C 99.200 225.575,98.727 225.406,98.267 225.867 M299.456 226.678 C 299.005 227.128,299.181 227.600,299.800 227.600 C 300.130 227.600,300.400 227.431,300.400 227.224 C 300.400 226.719,299.775 226.358,299.456 226.678 M106.267 230.667 C 105.806 231.127,105.975 231.600,106.600 231.600 C 106.930 231.600,107.200 231.330,107.200 231.000 C 107.200 230.375,106.727 230.206,106.267 230.667 M283.200 237.400 C 283.200 237.730,283.470 238.000,283.800 238.000 C 284.130 238.000,284.400 237.730,284.400 237.400 C 284.400 237.070,284.130 236.800,283.800 236.800 C 283.470 236.800,283.200 237.070,283.200 237.400 M122.256 241.878 C 121.805 242.328,121.981 242.800,122.600 242.800 C 122.930 242.800,123.200 242.631,123.200 242.424 C 123.200 241.919,122.575 241.558,122.256 241.878 M269.500 248.032 C 268.726 248.483,268.559 249.200,269.229 249.200 C 269.464 249.200,269.914 248.943,270.229 248.629 C 271.242 247.615,270.815 247.266,269.500 248.032 M130.800 249.386 C 130.800 249.812,131.897 250.800,132.371 250.800 C 132.607 250.800,132.800 250.530,132.800 250.200 C 132.800 249.870,132.635 249.600,132.433 249.600 C 132.231 249.600,131.781 249.491,131.433 249.357 C 131.085 249.224,130.800 249.237,130.800 249.386 M259.153 257.530 C 257.752 258.566,256.184 260.718,256.559 261.092 C 256.748 261.281,261.200 256.981,261.200 256.609 C 261.200 256.197,260.577 256.478,259.153 257.530 M149.200 267.800 C 149.200 268.167,149.393 268.402,149.630 268.323 C 149.867 268.245,150.060 268.009,150.060 267.800 C 150.060 267.591,149.867 267.356,149.630 267.277 C 149.393 267.198,149.200 267.433,149.200 267.800 M248.278 269.056 C 247.958 269.375,248.319 270.000,248.824 270.000 C 249.031 270.000,249.200 269.730,249.200 269.400 C 249.200 268.781,248.728 268.605,248.278 269.056 M154.000 273.400 C 154.000 273.767,154.194 274.002,154.430 273.923 C 154.667 273.845,154.860 273.609,154.860 273.400 C 154.860 273.191,154.667 272.955,154.430 272.877 C 154.194 272.798,154.000 273.033,154.000 273.400 M244.000 274.200 C 244.000 274.530,244.270 274.800,244.600 274.800 C 244.930 274.800,245.200 274.530,245.200 274.200 C 245.200 273.870,244.930 273.600,244.600 273.600 C 244.270 273.600,244.000 273.870,244.000 274.200 M241.200 278.200 C 241.200 278.530,241.380 278.800,241.600 278.800 C 241.820 278.800,242.000 278.530,242.000 278.200 C 242.000 277.870,241.820 277.600,241.600 277.600 C 241.380 277.600,241.200 277.870,241.200 278.200 M159.600 280.600 C 159.600 280.967,159.793 281.202,160.030 281.123 C 160.267 281.045,160.460 280.809,160.460 280.600 C 160.460 280.391,160.267 280.156,160.030 280.077 C 159.793 279.998,159.600 280.233,159.600 280.600 M238.678 281.056 C 238.358 281.375,238.719 282.000,239.224 282.000 C 239.431 282.000,239.600 281.730,239.600 281.400 C 239.600 280.781,239.128 280.605,238.678 281.056 M163.600 286.233 C 163.600 286.940,164.461 286.817,164.708 286.075 C 164.795 285.814,164.582 285.600,164.233 285.600 C 163.885 285.600,163.600 285.885,163.600 286.233 M234.678 286.656 C 234.358 286.975,234.719 287.600,235.224 287.600 C 235.431 287.600,235.600 287.330,235.600 287.000 C 235.600 286.381,235.128 286.205,234.678 286.656 M231.292 291.675 C 231.539 292.417,232.400 292.540,232.400 291.833 C 232.400 291.485,232.115 291.200,231.767 291.200 C 231.418 291.200,231.205 291.414,231.292 291.675 M168.400 293.400 C 168.400 293.767,168.594 294.002,168.830 293.923 C 169.067 293.845,169.260 293.609,169.260 293.400 C 169.260 293.191,169.067 292.955,168.830 292.877 C 168.594 292.798,168.400 293.033,168.400 293.400 M229.878 293.856 C 229.558 294.175,229.919 294.800,230.424 294.800 C 230.631 294.800,230.800 294.530,230.800 294.200 C 230.800 293.581,230.328 293.405,229.878 293.856 M170.000 295.800 C 170.000 296.167,170.194 296.402,170.430 296.323 C 170.667 296.245,170.860 296.009,170.860 295.800 C 170.860 295.591,170.667 295.356,170.430 295.277 C 170.194 295.198,170.000 295.433,170.000 295.800 M173.200 301.433 C 173.200 301.782,173.414 301.995,173.675 301.908 C 174.417 301.661,174.540 300.800,173.833 300.800 C 173.485 300.800,173.200 301.085,173.200 301.433 M179.600 313.400 C 179.600 313.767,179.793 314.002,180.030 313.923 C 180.267 313.845,180.460 313.609,180.460 313.400 C 180.460 313.191,180.267 312.956,180.030 312.877 C 179.793 312.798,179.600 313.033,179.600 313.400 M217.078 317.856 C 216.758 318.175,217.119 318.800,217.624 318.800 C 217.831 318.800,218.000 318.530,218.000 318.200 C 218.000 317.581,217.528 317.405,217.078 317.856 M182.800 320.600 C 182.800 320.930,182.980 321.200,183.200 321.200 C 183.420 321.200,183.600 320.930,183.600 320.600 C 183.600 320.270,183.420 320.000,183.200 320.000 C 182.980 320.000,182.800 320.270,182.800 320.600 M211.292 331.675 C 211.539 332.417,212.400 332.540,212.400 331.833 C 212.400 331.485,212.115 331.200,211.767 331.200 C 211.418 331.200,211.205 331.414,211.292 331.675 M210.492 334.075 C 210.739 334.817,211.600 334.940,211.600 334.233 C 211.600 333.885,211.315 333.600,210.967 333.600 C 210.618 333.600,210.405 333.814,210.492 334.075 M209.692 336.475 C 209.939 337.217,210.800 337.340,210.800 336.633 C 210.800 336.285,210.515 336.000,210.167 336.000 C 209.818 336.000,209.605 336.214,209.692 336.475 M208.892 338.875 C 209.139 339.617,210.000 339.740,210.000 339.033 C 210.000 338.685,209.715 338.400,209.367 338.400 C 209.018 338.400,208.805 338.614,208.892 338.875 M208.278 341.056 C 207.958 341.375,208.319 342.000,208.824 342.000 C 209.031 342.000,209.200 341.730,209.200 341.400 C 209.200 340.781,208.728 340.605,208.278 341.056 M191.600 345.433 C 191.600 346.140,192.461 346.017,192.708 345.275 C 192.795 345.014,192.582 344.800,192.233 344.800 C 191.885 344.800,191.600 345.085,191.600 345.433 M206.678 346.656 C 206.358 346.975,206.719 347.600,207.224 347.600 C 207.431 347.600,207.600 347.330,207.600 347.000 C 207.600 346.381,207.128 346.205,206.678 346.656 M193.200 351.000 C 193.200 351.330,193.380 351.600,193.600 351.600 C 193.820 351.600,194.000 351.330,194.000 351.000 C 194.000 350.670,193.820 350.400,193.600 350.400 C 193.380 350.400,193.200 350.670,193.200 351.000 M204.092 356.475 C 204.339 357.217,205.200 357.340,205.200 356.633 C 205.200 356.285,204.915 356.000,204.567 356.000 C 204.218 356.000,204.005 356.214,204.092 356.475 M195.600 362.233 C 195.600 362.582,195.814 362.795,196.075 362.708 C 196.817 362.461,196.940 361.600,196.233 361.600 C 195.885 361.600,195.600 361.885,195.600 362.233 M202.492 364.475 C 202.739 365.217,203.600 365.340,203.600 364.633 C 203.600 364.285,203.315 364.000,202.967 364.000 C 202.618 364.000,202.405 364.214,202.492 364.475 M197.200 371.833 C 197.200 372.182,197.414 372.395,197.675 372.308 C 198.417 372.061,198.540 371.200,197.833 371.200 C 197.485 371.200,197.200 371.485,197.200 371.833 M201.078 374.656 C 200.758 374.975,201.119 375.600,201.624 375.600 C 201.831 375.600,202.000 375.330,202.000 375.000 C 202.000 374.381,201.528 374.205,201.078 374.656 M198.164 377.750 C 197.825 378.633,198.276 379.084,198.887 378.473 C 199.247 378.113,199.249 377.889,198.893 377.533 C 198.537 377.177,198.364 377.229,198.164 377.750 M200.092 382.075 C 200.339 382.817,201.200 382.940,201.200 382.233 C 201.200 381.885,200.915 381.600,200.567 381.600 C 200.218 381.600,200.005 381.814,200.092 382.075 M198.800 387.400 C 198.800 388.133,199.013 388.400,199.600 388.400 C 200.187 388.400,200.400 388.133,200.400 387.400 C 200.400 386.667,200.187 386.400,199.600 386.400 C 199.013 386.400,198.800 386.667,198.800 387.400 " stroke="none" fill="#f4d47d" fill-rule="evenodd"></path></g></svg>